<svg xmlns="http://www.w3.org/2000/svg" xmlns:xlink="http://www.w3.org/1999/xlink" version="1.1" x="0px" y="0px" viewBox="0 0 100 125" enable-background="new 0 0 100 100" xml:space="preserve"><g><path d="M97.396,37.953c-0.193-8.895-2.9-17.824-9.109-24.389C81.22,6.094,70.61,2.508,60.449,3.855   c-4.964,0.658-9.759,2.497-13.849,5.394c-2.001,1.417-3.834,3.075-5.448,4.919c-0.65,0.744-1.267,1.519-1.845,2.32   c-0.256,0.354-0.969,1.415-1.078,1.586c-0.18,0.282-0.467-0.032-0.744-0.14c-4.341-1.685-8.282,3.614-5.382,7.29   c-0.004,0.148-0.298,0.458-0.375,0.576c-0.346,0.53-17.541,26.923-17.846,27.392c-0.439,0.674-0.831,0.107-1.644,0.045   c-4.653-0.35-6.868,5.854-3.052,8.529c-3.131,3.557-5.391,8.084-3.995,12.908c1.011,3.49,4.751,5.66,8.312,4.602   c3.401-1.01,4.466-5.047,4.878-8.143c0.151-1.135,0.143-2.252-0.001-3.389c-0.078-0.617-0.187-1.229-0.321-1.836   c-0.101-0.457,0.045-0.32,0.418-0.467c0.321-0.127,0.627-0.287,0.913-0.48c1.918-1.299,2.589-3.887,1.569-5.959   c-0.365-0.74-0.501-0.557-0.122-1.139c0.322-0.496,17.581-26.984,17.911-27.491c0.363-0.559,0.197-0.475,0.945-0.311   c4.496,0.988,7.501-4.757,4.26-7.944c-0.24-0.236-0.852-0.458-0.652-0.774c0.227-0.361,0.463-0.718,0.707-1.069   c0.618-0.892,1.292-1.746,2.019-2.553c1.614-1.794,3.488-3.362,5.55-4.619c8.831-5.388,20.565-4.699,28.944,1.26   c7.417,5.276,10.811,13.883,11.284,22.729c0.49,9.156-2.345,18.421-7.941,25.692c-5.27,6.846-13.35,12.281-22.261,12.115   c0.145-0.617,0.296-1.234,0.454-1.85c-1.336,0.002-2.635-0.156-3.932-0.484c-0.152,0.631-0.3,1.262-0.439,1.895   c-0.536-0.111-1.064-0.244-1.59-0.4c-1.27-0.377-2.507-0.867-3.689-1.465c-2.082-1.053-4.027-2.428-5.732-4.018   c-3.369-3.139-5.138-7.604-5.404-12.15c-0.564-9.656,5.574-20.195,15.954-20.917c3.249-0.226,6.648,0.249,9.503,1.894   c3.538,2.04,5.719,5.695,6.496,9.639c0.803,4.071,0.24,8.461-1.568,12.194c-1.536,3.17-4.133,6.152-7.637,7.119   c1.563-4.754,3.953-9.527,3.174-14.672c-0.74-4.895-4.678-8.724-9.758-8.602c-4.008,0.097-7.281,2.574-9.281,5.902   c-2.614,4.35-2.574,9.651-0.045,14.03c2.384,4.133,6.65,7.174,11.385,7.895c4.34,0.66,8.612-0.799,11.813-3.756   c7.465-6.83,9.08-19.622,3.637-28.122c-5.143-8.03-16.284-10.33-24.798-6.668c-9.481,4.077-14.515,14.899-13.798,24.86   c0.369,5.117,2.285,10.133,5.771,13.938c2.924,3.195,6.749,5.715,10.791,7.242c9.896,3.736,20.697,0.781,28.714-5.703   C91.888,64.396,97.72,51.094,97.396,37.953C97.34,35.414,97.646,48.095,97.396,37.953z M14.03,70.072   c-0.201,1.799-0.804,6.389-3.712,4.627c-1.358-0.824-1.153-3.307-0.947-4.592c0.357-2.223,2.089-4.256,3.56-5.85   C13.644,65.996,14.242,68.176,14.03,70.072C13.449,75.262,14.184,68.691,14.03,70.072z M53.304,62.848   c-3.199-3.496-3.832-8.488-1.045-12.43c1.894-2.678,5.533-4.328,8.527-2.235c4.02,2.81,2.299,8.658,0.993,12.417   c-0.392,1.125-0.782,2.252-1.175,3.379c-0.219,0.633-0.421,1.271-0.621,1.912c-0.083,0.268-0.217,0.648-0.217,0.648   s-0.834-0.199-1.113-0.285C56.603,65.639,54.743,64.424,53.304,62.848C51.938,61.355,54.666,64.34,53.304,62.848z"/><path d="M60.042,92.875c-0.456-3.059-0.341-6.316,0.045-9.375c-1.283-0.086-2.563-0.238-3.83-0.457   c-0.551,4.586-0.689,9.93,0.967,14.324c0.222,0.588,0.54,1.107,1.153,1.363c1.024,0.426,2.229-0.154,2.532-1.223   c0.178-0.623-0.041-1.1-0.227-1.643C60.354,94.9,60.171,93.883,60.042,92.875C59.864,91.688,60.349,95.281,60.042,92.875z"/></g><text x="0" y="115" fill="#000000" font-size="5px" font-weight="bold" font-family="'Helvetica Neue', Helvetica, Arial-Unicode, Arial, Sans-serif">Created by Cédric Villain</text><text x="0" y="120" fill="#000000" font-size="5px" font-weight="bold" font-family="'Helvetica Neue', Helvetica, Arial-Unicode, Arial, Sans-serif">from the Noun Project</text></svg>