<!--?xml version="1.0" encoding="utf-8"?-->
<!-- Generator: Adobe Illustrator 19.1.1, SVG Export Plug-In . SVG Version: 6.00 Build 0)  -->
<svg version="1.1" id="_x31_0" xmlns="http://www.w3.org/2000/svg" xmlns:xlink="http://www.w3.org/1999/xlink" x="0px" y="0px" viewBox="0 0 512 512" style="width: 256px; height: 256px; opacity: 1;" xml:space="preserve">
<style type="text/css">
	.st0{fill:#374149;}
</style>
<g>
	<path class="st0" d="M501.137,34.165c-9.398-11.679-23.356-18.359-38.262-18.359c-5.214,0-10.43,0.805-15.347,2.422
		c-23.207,7.563-42.524,9.398-62.864,11.309c-23.722,2.278-50.527,4.774-80.27,17.114c-18.137,7.562-34.367,16.523-48.395,26.73
		c-14.027-10.207-30.258-19.168-48.394-26.73c-29.742-12.34-56.547-14.836-80.122-17.039c-20.488-1.985-39.805-3.82-63.012-11.383
		c-4.992-1.617-10.133-2.422-15.348-2.422c-14.906,0-28.859,6.68-38.187,18.359C1.463,45.916-2.06,61.115,1.17,75.877
		c25.922,116.841,76.45,181.025,150.254,190.868c10.207,1.321,20.34,2.055,30.18,2.055c32.535,0,57.286-7.418,74.394-15.348
		c17.114,7.93,41.86,15.348,74.395,15.348c9.84,0,19.973-0.734,30.18-2.055c73.805-9.843,124.332-74.027,150.254-190.868
		C514.059,61.115,510.536,45.916,501.137,34.165z M274.698,237.346c-3.293-1.218-6.304-2.484-9.105-3.774
		c-1.93-0.89-3.836-1.808-5.696-2.785c-1.336-0.699-2.703-1.402-3.898-2.086c-14.394,8.227-38.922,18.067-74.394,18.067
		c-8.813,0-17.993-0.661-27.242-1.836c-63.746-8.52-108.028-66.977-131.677-173.83c-1.836-8.226,0.149-16.672,5.36-23.133
		c5.214-6.461,12.851-10.133,21.078-10.133c2.863,0,5.73,0.438,8.52,1.321c25.554,8.371,46.926,10.43,67.637,12.336
		c23.207,2.203,47.145,4.48,73.879,15.496c15.442,6.406,27.962,13.422,38.145,20.262c0.996,0.672,2.016,1.324,2.988,2.012
		c1.922,1.343,3.77,2.683,5.512,4c3.262,2.5,6.434,5.046,9.398,7.703c0.254,0.226,0.547,0.465,0.797,0.687
		c1.348-1.207,2.801-2.449,4.313-3.707c0.5-0.414,1.019-0.824,1.523-1.234c11.766-9.554,28.286-20.297,51.004-29.722
		c26.735-11.016,50.673-13.293,73.88-15.496c20.71-1.906,42.082-3.965,67.637-12.336c2.789-0.883,5.656-1.321,8.519-1.321
		c8.223,0,15.863,3.672,21.074,10.133c5.215,6.461,7.199,14.906,5.363,23.133c-23.648,106.853-68.004,165.31-131.676,173.83
		c-9.25,1.175-18.43,1.836-27.242,1.836c-17.699,0-32.754-2.497-45.094-5.95c-2.078-0.578-3.968-1.222-5.894-1.855
		C277.824,238.444,276.245,237.921,274.698,237.346z" style="fill: rgb(75, 75, 75);"></path>
	<path class="st0" d="M354.773,223.049c3.305-0.442,6.43-1.211,9.554-1.977c0.102-0.027,0.211-0.039,0.313-0.066
		c2.809-0.699,5.515-1.582,8.183-2.531c0.711-0.254,1.43-0.504,2.137-0.778c2.645-1.019,5.226-2.136,7.734-3.39
		c0.481-0.242,0.95-0.508,1.426-0.758c49.227-25.734,72.11-94.993,83.677-147.219c0.57-2.578-0.801-4.825-2.84-5.84
		c-0.012-0.004-0.023-0.012-0.035-0.02c-0.606-0.297-1.234-0.426-1.942-0.449c-0.043-0.004-0.082-0.027-0.125-0.027
		c-0.09,0-0.18,0.035-0.274,0.042c-0.446,0.02-0.859-0.098-1.324,0.051c-57.356,18.726-93.852,8.152-139.974,27.246
		c-44.61,18.527-61.61,41.699-64.707,46.386c-0.317,0.446-0.516,0.726-0.614,0.852c-0.359-0.614-15.973-26.774-65.25-47.238
		c-46.121-19.094-82.617-8.52-139.973-27.246c-0.465-0.149-0.879-0.031-1.324-0.051c-0.094-0.007-0.184-0.042-0.274-0.042
		c-0.043,0-0.082,0.023-0.125,0.027c-0.707,0.023-1.336,0.152-1.942,0.449c-0.012,0.008-0.024,0.016-0.039,0.024
		c-2.035,1.015-3.406,3.262-2.832,5.836c11.562,52.218,34.438,121.465,83.653,147.207c0.484,0.254,0.965,0.527,1.453,0.774
		c2.504,1.25,5.082,2.367,7.723,3.386c0.71,0.274,1.43,0.524,2.148,0.778c2.664,0.954,5.367,1.832,8.172,2.531
		c0.11,0.027,0.218,0.043,0.328,0.066c3.122,0.77,6.242,1.535,9.543,1.977c67.27,8.957,98.774-21.078,98.774-21.078
		S287.503,232.006,354.773,223.049z M327.527,126.842c19.023-6.61,50.454-2.79,65.36-5.875c2.058-0.442,3.746,1.617,3.011,3.527
		c-9.988,28.715-16.449,55.223-50.305,58.383c-35.985,3.305-48.246-27.172-48.246-27.172S306.011,134.26,327.527,126.842z
		 M119.112,120.967c14.906,3.086,46.336-0.734,65.36,5.875c21.515,7.418,30.18,28.863,30.18,28.863s-12.262,30.477-48.246,27.172
		c-33.856-3.16-40.317-29.668-50.306-58.383C115.365,122.584,117.053,120.525,119.112,120.967z" style="fill: rgb(75, 75, 75);"></path>
	<path class="st0" d="M397.257,427.226c-2.918-3.012-5.918-6.875-8.914-11.5c-2.574-3.883-5.137-8.305-7.95-13.149
		c-2.133-3.676-4.402-7.582-6.906-11.664c-5.886-9.527-13.378-20.519-24.378-29.973c-5.684-4.801-11.883-8.871-18.438-12.117
		c-6.637-3.282-13.641-5.829-21.406-7.782c-16.114-3.57-30.535-5.137-44.188-4.813c-13.176,0.118-27.602,2.946-45.266,9.004
		c-13.004,4.379-26.465,8.918-39.516,11.406l-9.855,1.726c-2.958,0.391-6.047,0.649-9.047,0.703
		c-6.098,0.125-12.035-0.473-17.629-1.762c-10.61-2.386-21.18-7.406-30.578-14.516c-8.012-5.988-15.402-13.332-22.626-22.488
		c-6.226-7.848-11.121-15.738-15.492-23.098c-4.242-7.294-7.543-13.895-10.195-19.188c-2.586-5.418-4.57-9.77-5.863-12.75
		l-1.934-4.512c-1.438-3.351-4.746-5.274-8.129-5.078c-0.926,0.051-1.852,0.262-2.746,0.641c-3.594,1.539-5.656,5.422-4.902,9.23
		c0.012,0.051,0.43,2.039,1.398,5.52c1.035,3.606,2.516,8.48,4.859,14.496c2.418,6.496,5.738,13.746,9.852,21.5
		c4.246,8.238,9.836,17.016,16.59,26.043c8.297,10.789,16.829,19.523,26.118,26.734c11.738,9.176,25.078,15.758,38.57,19.043
		c7.34,1.797,15.066,2.691,22.965,2.641c4.195-0.004,8.031-0.234,11.703-0.696l10.93-1.687c14.274-2.363,27.989-6.668,41.25-10.836
		l1.59-0.496c11.176-3.516,24.426-7.106,38.305-6.957c11.524-0.039,23.962,1.586,38.067,4.972c5.687,1.614,11.086,3.7,15.457,5.989
		c4.809,2.523,9.188,5.519,13.02,8.898c8.336,7.309,14.484,16.641,18.906,23.946c2.019,3.39,3.957,6.809,5.859,10.164
		c3.098,5.465,6.019,10.617,9.183,15.484c5.454,8.512,11.07,15.309,16.692,20.18l6.082,5.551l10.344-26.985L397.257,427.226z" style="fill: rgb(75, 75, 75);"></path>
	<path class="st0" d="M484.001,460.801l-73.02-27.989l-0.473-0.183v0.004l-0.152-0.058l-13.172,34.336l-0.028,0.062h0.004
		l-0.058,0.148l73.649,28.242c6.578,2.485,13.957-0.789,16.473-7.344l4.118-10.746C493.856,470.718,490.563,463.324,484.001,460.801
		z" style="fill: rgb(75, 75, 75);"></path>
</g>
</svg>
